<svg viewBox="0 0 2048 2048" xmlns="http://www.w3.org/2000/svg">
  <defs>
    <linearGradient id="cyanLavande" x1="0" y1="0" x2="1" y2="1">
      <stop offset="0%" stop-color="#88e1ff"/>
      <stop offset="35%" stop-color="#c8a8ff"/>
      <stop offset="70%" stop-color="#4ab8e8"/>
      <stop offset="100%" stop-color="#88e1ff"/>
    </linearGradient>
  </defs>
  <path fill="url(#cyanLavande)" d="M1025 1456.60 c-37.40 -4.40 -80 -16 -113.80 -30.60 l-22.80 -10 -21 8 c-109.40 41.20 -213.80 23 -281 -49 c-30 -32 -49.20 -71.20 -60.80 -124 c-4 -18.80 -3.40 -93 1 -116.80 c2 -10.20 4 -19.60 4.60 -20.40 c0.60 -1 54.40 -1.80 119.80 -1.80 l118.80 0 4 -5.20 c2.40 -3 4.20 -6.80 4.20 -8.80 c0 -1.80 -4.40 -12.80 -9.80 -24.20 c-57 -121.40 -66 -255.80 -23.20 -345.20 c29.80 -62.40 80.40 -106.80 144 -126.40 c28.40 -8.60 49.80 -12.20 82 -13.60 c57 -2.40 110.20 6.80 165 28.20 l21.40 8.60 20.80 -7.80 c33.40 -12.40 63.60 -19.60 92.40 -21.80 c115.60 -8.80 208.20 50 241.20 153.20 c11 34.40 13 49.80 12.80 97 c-0.20 33.40 -1 47 -4 61 l-3.60 18 -119.40 0.60 -119.20 0.40 -4.20 8.60 c-5.40 11 -5.20 13.40 0.60 25 c2.60 5.20 10.60 24.20 17.80 42.40 c41.20 103.20 48.40 207 20.40 291.40 c-13.20 39.60 -31.40 68.80 -60.60 97 c-38.20 36.80 -78.20 56.40 -132.40 64.60 c-17.20 2.80 -78 3.80 -95 1.60z m-172 -66.80 c44.60 -14.80 109.40 -61.20 161.80 -116 c71.40 -74.60 134.40 -163.20 180 -253.80 c73.40 -145.20 104.60 -284.40 77 -343.20 c-8.60 -18.20 -28.80 -32.80 -45.80 -32.80 c-16.80 0 -57 17.20 -86.40 37.20 c-120.40 81.60 -260.80 267.40 -328.20 433.80 c-47.20 116.60 -58.60 193.20 -36.20 243.20 c6.60 14.80 22.20 29.60 36 34.40 c11.60 4 23.80 3 41.80 -2.80z"/>
</svg>
